# xmcd
#
# Track frame offsets: 
#        150
#        17415
#        33622
#        59175
#        74730
#        88107
#        103507
#        116825
#        140065
#        167055
#        181087
#        192547
#
# Disc length: 2812 seconds
#
# Revision: 5
# Processed by: cddbd v1.5.2PL0 Copyright (c) Steve Scherf et al.
# Submitted via: ExactAudioCopy v1.3
#
DISCID=b60afa0c
DTITLE=Leonard Cohen - Greatest Hits
DYEAR=1975
DGENRE=Ballad
TTITLE0=Suzanne
TTITLE1=Sisters Of Mercy
TTITLE2=So Long, Marianne
TTITLE3=Bird On The Wire
TTITLE4=Lady Midnight
TTITLE5=The Partisan
TTITLE6=Hey, That's No Way To Say Goodbye
TTITLE7=Famous Blue Raincoat
TTITLE8=Last Year's Man
TTITLE9=Chelsea Hotel No. 2
TTITLE10=Who By Fire
TTITLE11=Take This Longing
EXTD=
EXTT0=
EXTT1=
EXTT2=
EXTT3=
EXTT4=
EXTT5=
EXTT6=
EXTT7=
EXTT8=
EXTT9=
EXTT10=
EXTT11=
PLAYORDER=
